<svg xmlns="http://www.w3.org/2000/svg" width="32" height="38.741" viewBox="0 0 32 38.741"><defs><style>.a{fill:#04446c;fill-rule:evenodd;}</style></defs><path class="a" d="M8.484,32.7h4.184v2.4H8.484Zm0-4.107h4.184v2.4H8.484Zm0-4.184h4.184v2.4H8.484Zm0-4.107h4.184v2.4H8.484Zm6.508,12.4h4.184v2.4H14.993Zm0-4.107h4.184v2.4H14.993ZM21.424,32.7h4.184v2.4H21.424Zm0-4.107h4.184v2.4H21.424Zm-6.431-4.184h4.184v2.4H14.993Zm0-4.107h4.184v2.4H14.993Zm12.939,2.4V20.3h4.184v2.4Zm0,10h4.184v2.4H27.932Zm0-8.291h4.184v2.4H27.932Zm0,6.586v-2.4h4.184v2.4Zm-6.508-6.586h4.184v2.4H21.424Zm0-4.107h4.184v2.4H21.424ZM8.484,16.116h4.184V18.6H8.484Zm6.508,0h4.184V18.6H14.993Zm6.431,0h4.184V18.6H21.424Zm6.508,0h4.184V18.6H27.932ZM8.484,12.01h4.184v2.4H8.484Zm6.508,0h4.184v2.4H14.993Zm6.431,0h4.184v2.4H21.424Zm6.508,0h4.184v2.4H27.932ZM8.484,7.9h4.184v2.4H8.484Zm6.508,0h4.184v2.4H14.993Zm6.431,0h4.184v2.4H21.424Zm6.508,0h4.184v2.4H27.932ZM8.484,3.719h4.184v2.4H8.484Zm6.508,0h4.184v2.4H14.993Zm6.431,0h4.184v2.4H21.424ZM36.3,36.571V0H4.377V36.571L4.3,38.741h32ZM27.932,3.719h4.184v2.4H27.932Z" transform="translate(-4.3)"/></svg>