<svg xmlns="http://www.w3.org/2000/svg" width="37.999" height="34.516" viewBox="0 0 37.999 34.516"><defs><style>.a{fill:#04446c;fill-rule:evenodd;}.b{fill:#fff;}</style></defs><path class="a" d="M1.2,22.983v3.16H4.522V38.216H35.878V26.143H39.2v-3.16l-5.915-6.077V5.645H24.7V8.237L20.24,3.7" transform="translate(-1.2 -3.7)"/><path class="b" d="M17.682,28.449a5.351,5.351,0,0,0,2.431,4.456L22.3,30.718v5.672H16.629L18.817,34.2a7.023,7.023,0,0,1,4.132-12.721v1.7A5.2,5.2,0,0,0,17.682,28.449ZM24,34.607v1.7a7.054,7.054,0,0,0,7.049-7.049,6.946,6.946,0,0,0-2.917-5.672L30.322,21.4H24.65v5.672l2.188-2.188a5.351,5.351,0,0,1,2.431,4.456A5.256,5.256,0,0,1,24,34.607Z" transform="translate(-3.99 -7.059)"/></svg>