<svg xmlns="http://www.w3.org/2000/svg" width="22.685" height="20.795" viewBox="0 0 22.685 20.795"><defs><style>.a{fill-rule:evenodd;}</style></defs><path class="a" d="M22.685,12.343H19.849V21.8H2.836V12.343H0L11.342,1,22.685,12.343ZM4.726,10.29v9.615H17.959V10.29L11.342,3.674,4.726,10.29Zm9.766,7.6s-3.736-3.931-3.921-4.115a.829.829,0,0,0-1.215-.048c-.376.376-.035.963-.035.963l-.826.827L6.157,13.181l.827-.826a.828.828,0,0,0,1.053-.07c.522-.522.285-1.217,1.441-2.089a3.673,3.673,0,0,1,2.253-.688,7.3,7.3,0,0,1,2.854.664c-2.44.244-3.409,1.373-2.4,2.382l3.776,4.081a.967.967,0,0,1-1.469,1.257ZM18.9,1.946v5.27L16.068,4.381V1.946H18.9Z" transform="translate(0 -1)"/></svg>