<svg xmlns="http://www.w3.org/2000/svg" width="54.108" height="25.473" viewBox="0 0 54.108 25.473"><defs><style>.a,.c{fill:#04446c;}.a{fill-rule:evenodd;}.b{fill:#fff;}.c{stroke:#04446c;stroke-miterlimit:10;}</style></defs><g transform="translate(0.162)"><g transform="translate(0 0)"><path class="a" d="M7.286,19.267v3.446h-2.7V19.267Zm4.527,0v3.446H9.178V19.267ZM18.84,32.173V18.457H1.814V32.173H8.5V25.213h3.919v6.959Zm-5.068-9.459V19.267h2.635v3.446Zm16.959,0V19.267h2.635v3.446Zm-4.595,0V19.267h2.635v3.446Zm-4.527,0V19.267h2.635v3.446Zm-2.5-4.257V32.173h6.351V25.213h3.919v6.959h6.757V18.457ZM37.084,16.9,27.759,6.7l-8.378,8.649L11.07,6.7.8,16.767Z" transform="translate(-0.8 -6.7)"/></g><rect width="2.635" height="3.446" transform="translate(38.04 17.77)"/><rect width="2.635" height="3.446" transform="translate(47.162 17.77)"/><rect width="2.635" height="3.446" transform="translate(47.162 12.568)"/><rect width="2.635" height="3.446" transform="translate(42.635 12.568)"/><rect width="2.635" height="3.446" transform="translate(38.04 12.568)"/><path class="a" d="M53.5,24.1V37.816h6.419V30.857h3.919v6.959h6.689V24.1Z" transform="translate(-17.892 -12.343)"/><path class="a" d="M62.789,16.767,52.721,6.7l-8.311,8.649L36.032,6.7,26.1,17.105Z" transform="translate(-9.006 -6.7)"/><rect class="b" width="2.635" height="3.446" transform="translate(38.04 12.905)"/><rect class="b" width="2.635" height="3.446" transform="translate(42.635 12.905)"/><rect class="b" width="2.635" height="3.446" transform="translate(47.162 12.905)"/><rect class="c" width="53.108" height="0.743" transform="translate(0.338 10.405)"/></g></svg>