<?xml version="1.0" encoding="utf-8"?>
<!-- Generator: Adobe Illustrator 25.3.0, SVG Export Plug-In . SVG Version: 6.00 Build 0)  -->
<svg version="1.1" id="Layer_1" xmlns="http://www.w3.org/2000/svg" xmlns:xlink="http://www.w3.org/1999/xlink" x="0px" y="0px"
	 viewBox="0 0 275.43 83.21" style="enable-background:new 0 0 275.43 83.21;" xml:space="preserve">
<style type="text/css">
	.st0{fill:#01426A;}
	.st1{fill:#75787B;}
</style>
<g>
	<path class="st0" d="M2.7,5.01h33.46c9.31,0,16.52,2.61,21.33,7.42c4.08,4.08,6.27,9.83,6.27,16.73v0.21
		c0,11.81-6.38,19.24-15.68,22.69L65.96,78.2H47.14L31.46,54.78H18.81V78.2H2.7V5.01z M35.12,40.56c7.84,0,12.34-4.18,12.34-10.35
		V30c0-6.9-4.81-10.46-12.65-10.46h-16v21.02H35.12z"/>
	<path class="st0" d="M67.84,5.01h29.9c17.46,0,28.02,10.35,28.02,25.3v0.21c0,16.94-13.17,25.72-29.59,25.72H83.94V78.2h-16.1V5.01
		z M96.69,41.92c8.05,0,12.76-4.81,12.76-11.08v-0.21c0-7.21-5.02-11.08-13.07-11.08H83.94v22.37H96.69z"/>
	<path class="st0" d="M124.29,67.53l9.51-11.4c6.59,5.44,13.49,8.89,21.85,8.89c6.59,0,10.56-2.61,10.56-6.9v-0.21
		c0-4.08-2.51-6.17-14.74-9.31c-14.74-3.76-24.26-7.84-24.26-22.37v-0.21c0-13.28,10.66-22.06,25.62-22.06
		c10.66,0,19.76,3.35,27.18,9.31l-8.36,12.13c-6.48-4.5-12.86-7.21-19.03-7.21c-6.17,0-9.41,2.82-9.41,6.38v0.21
		c0,4.81,3.14,6.38,15.79,9.62c14.85,3.87,23.21,9.2,23.21,21.96v0.21c0,14.53-11.08,22.69-26.87,22.69
		C144.26,79.24,133.08,75.37,124.29,67.53z"/>
</g>
<g>
	<g>
		<path class="st1" d="M191.2,35.57h4.59c0.98,0,1.78,0.27,2.39,0.8c0.74,0.6,1.13,1.47,1.17,2.59c-0.02,1.65-0.78,2.77-2.27,3.36
			l2.72,5.38h-2.11l-2.43-5.18h-2.28v5.18h-1.78V35.57z M192.98,40.88h2.7c0.67-0.01,1.17-0.21,1.5-0.6
			c0.33-0.36,0.49-0.81,0.49-1.33c-0.01-0.63-0.21-1.09-0.59-1.38c-0.3-0.25-0.74-0.38-1.31-0.38h-2.79V40.88z"/>
		<path class="st1" d="M201.42,35.57h7.5v1.73h-5.73v3.47h4.89v1.63h-4.89v3.57h5.73v1.73h-7.5V35.57z"/>
		<path class="st1" d="M216.74,44.98h-4.45l-0.9,2.71h-1.88l4.27-12.12h1.49l4.27,12.12h-1.88L216.74,44.98z M216.23,43.35l-1.7-5.3
			h-0.03l-1.7,5.3H216.23z"/>
		<path class="st1" d="M220.94,35.57h1.78v10.4h5.73v1.73h-7.5V35.57z"/>
		<path class="st1" d="M191.2,50.67h4.26c0.46,0,0.91,0.04,1.34,0.13c0.43,0.12,0.87,0.35,1.31,0.72c0.37,0.27,0.67,0.66,0.9,1.16
			c0.24,0.49,0.36,1.06,0.36,1.73c0,0.9-0.31,1.72-0.92,2.45c-0.63,0.78-1.55,1.18-2.76,1.2h-2.71v4.73h-1.78V50.67z M192.98,56.33
			h2.64c0.66-0.01,1.16-0.22,1.49-0.64c0.32-0.4,0.48-0.85,0.48-1.34c0-0.41-0.06-0.75-0.19-1.03c-0.13-0.25-0.32-0.45-0.57-0.59
			c-0.37-0.24-0.79-0.35-1.28-0.34h-2.58V56.33z"/>
		<path class="st1" d="M201.13,50.67h4.59c0.98,0,1.78,0.27,2.39,0.8c0.74,0.6,1.13,1.47,1.17,2.59c-0.02,1.65-0.78,2.77-2.27,3.36
			l2.72,5.38h-2.11l-2.43-5.18h-2.28v5.18h-1.78V50.67z M202.91,55.98h2.7c0.67-0.01,1.17-0.21,1.5-0.6
			c0.33-0.36,0.49-0.81,0.49-1.33c-0.01-0.63-0.21-1.09-0.59-1.38c-0.3-0.25-0.74-0.38-1.31-0.38h-2.79V55.98z"/>
		<path class="st1" d="M210.94,56.73c0-1.41,0.04-2.36,0.12-2.83c0.08-0.48,0.22-0.86,0.39-1.16c0.28-0.56,0.74-1.05,1.37-1.49
			c0.62-0.44,1.39-0.67,2.31-0.68c0.93,0.01,1.71,0.24,2.33,0.68c0.62,0.44,1.06,0.94,1.34,1.5c0.2,0.29,0.33,0.68,0.41,1.16
			c0.07,0.48,0.1,1.42,0.1,2.83c0,1.39-0.03,2.32-0.1,2.81c-0.08,0.49-0.21,0.88-0.41,1.17c-0.27,0.56-0.72,1.05-1.34,1.48
			c-0.62,0.44-1.4,0.68-2.33,0.7c-0.92-0.02-1.69-0.25-2.31-0.7c-0.63-0.43-1.08-0.92-1.37-1.48c-0.08-0.18-0.16-0.36-0.23-0.52
			c-0.06-0.17-0.12-0.39-0.16-0.65C210.98,59.05,210.94,58.12,210.94,56.73z M212.72,56.73c0,1.19,0.04,2,0.13,2.42
			c0.08,0.42,0.23,0.76,0.46,1.03c0.19,0.25,0.44,0.45,0.74,0.61c0.3,0.18,0.66,0.27,1.08,0.27c0.42,0,0.79-0.09,1.11-0.27
			c0.3-0.16,0.53-0.36,0.71-0.61c0.23-0.26,0.39-0.6,0.48-1.03c0.08-0.42,0.12-1.23,0.12-2.42s-0.04-2.01-0.12-2.44
			c-0.09-0.41-0.25-0.75-0.48-1.01c-0.18-0.25-0.41-0.46-0.71-0.62c-0.31-0.16-0.68-0.25-1.11-0.26c-0.42,0.01-0.78,0.1-1.08,0.26
			c-0.31,0.17-0.55,0.38-0.74,0.62c-0.23,0.26-0.38,0.6-0.46,1.01C212.77,54.72,212.72,55.53,212.72,56.73z"/>
		<path class="st1" d="M221.56,50.67h4.26c0.46,0,0.91,0.04,1.34,0.13c0.43,0.12,0.87,0.35,1.31,0.72c0.37,0.27,0.67,0.66,0.9,1.16
			c0.24,0.49,0.36,1.06,0.36,1.73c0,0.9-0.31,1.72-0.92,2.45c-0.63,0.78-1.55,1.18-2.76,1.2h-2.71v4.73h-1.78V50.67z M223.34,56.33
			h2.64c0.66-0.01,1.16-0.22,1.49-0.64c0.32-0.4,0.48-0.85,0.48-1.34c0-0.41-0.06-0.75-0.19-1.03c-0.13-0.25-0.32-0.45-0.57-0.59
			c-0.37-0.24-0.79-0.35-1.28-0.34h-2.58V56.33z"/>
		<path class="st1" d="M231.49,50.67h7.5v1.73h-5.73v3.47h4.89v1.63h-4.89v3.57h5.73v1.73h-7.5V50.67z"/>
		<path class="st1" d="M240.79,50.67h4.59c0.98,0,1.78,0.27,2.39,0.8c0.74,0.6,1.13,1.47,1.17,2.59c-0.02,1.65-0.78,2.77-2.27,3.36
			l2.72,5.38h-2.11l-2.43-5.18h-2.28v5.18h-1.78V50.67z M242.57,55.98h2.7c0.67-0.01,1.17-0.21,1.5-0.6
			c0.33-0.36,0.49-0.81,0.49-1.33c-0.01-0.63-0.21-1.09-0.59-1.38c-0.3-0.25-0.74-0.38-1.31-0.38h-2.79V55.98z"/>
		<path class="st1" d="M252.69,52.3h-3.22v-1.63h8.22v1.63h-3.22v10.5h-1.78V52.3z"/>
		<path class="st1" d="M261.09,57.8l-3.54-7.14h1.89l2.49,5.38l2.49-5.38h1.89l-3.54,7.14v4.99h-1.68V57.8z"/>
		<path class="st1" d="M191.35,74.95c0.93,0.79,2.05,1.2,3.34,1.21c1.53-0.02,2.3-0.59,2.32-1.69c0.01-0.9-0.5-1.45-1.53-1.63
			c-0.47-0.07-0.99-0.14-1.55-0.22c-1.01-0.17-1.78-0.56-2.3-1.16c-0.54-0.62-0.81-1.37-0.81-2.25c0-1.06,0.34-1.91,1.02-2.56
			c0.66-0.64,1.6-0.97,2.81-0.98c1.46,0.03,2.73,0.45,3.81,1.25l-0.99,1.51c-0.88-0.6-1.85-0.91-2.91-0.93c-0.55,0-1,0.14-1.37,0.42
			c-0.38,0.29-0.58,0.73-0.59,1.31c0,0.35,0.13,0.67,0.39,0.95c0.26,0.29,0.68,0.49,1.26,0.6c0.32,0.06,0.76,0.12,1.32,0.19
			c1.1,0.16,1.92,0.56,2.44,1.22c0.52,0.65,0.78,1.4,0.78,2.26c-0.06,2.32-1.43,3.5-4.12,3.53c-1.74,0-3.23-0.55-4.48-1.65
			L191.35,74.95z"/>
		<path class="st1" d="M200.4,71.83c0-1.41,0.04-2.36,0.12-2.83c0.08-0.48,0.22-0.86,0.39-1.16c0.28-0.56,0.74-1.05,1.37-1.49
			c0.62-0.44,1.39-0.67,2.31-0.68c0.93,0.01,1.71,0.24,2.33,0.68c0.62,0.44,1.06,0.94,1.34,1.5c0.2,0.29,0.33,0.68,0.41,1.16
			c0.07,0.48,0.1,1.42,0.1,2.83c0,1.39-0.03,2.32-0.1,2.81c-0.08,0.49-0.21,0.88-0.41,1.17c-0.27,0.56-0.72,1.05-1.34,1.48
			c-0.62,0.44-1.4,0.68-2.33,0.7c-0.92-0.02-1.69-0.25-2.31-0.7c-0.63-0.43-1.08-0.92-1.37-1.48c-0.08-0.18-0.16-0.36-0.23-0.52
			c-0.06-0.17-0.12-0.39-0.16-0.65C200.44,74.15,200.4,73.21,200.4,71.83z M202.18,71.83c0,1.19,0.04,2,0.13,2.42
			c0.08,0.42,0.23,0.76,0.46,1.03c0.19,0.25,0.44,0.45,0.74,0.61c0.3,0.18,0.66,0.27,1.08,0.27c0.42,0,0.79-0.09,1.11-0.27
			c0.3-0.16,0.53-0.36,0.71-0.61c0.23-0.26,0.39-0.6,0.48-1.03c0.08-0.42,0.12-1.23,0.12-2.42s-0.04-2.01-0.12-2.44
			c-0.09-0.41-0.25-0.75-0.48-1.01c-0.18-0.25-0.41-0.46-0.71-0.62c-0.31-0.16-0.68-0.25-1.11-0.26c-0.42,0.01-0.78,0.1-1.08,0.26
			c-0.31,0.17-0.55,0.38-0.74,0.62c-0.23,0.26-0.38,0.6-0.46,1.01C202.23,69.82,202.18,70.63,202.18,71.83z"/>
		<path class="st1" d="M211.02,65.77h1.78v10.4h5.73v1.73h-7.5V65.77z"/>
		<path class="st1" d="M220.11,65.77h1.78v7.82c0.01,0.83,0.24,1.46,0.69,1.89c0.44,0.46,1.01,0.68,1.7,0.68
			c0.69,0,1.27-0.23,1.72-0.68c0.44-0.43,0.67-1.06,0.68-1.89v-7.82h1.78v8.02c-0.02,1.28-0.42,2.29-1.2,3.04
			c-0.78,0.77-1.78,1.16-2.97,1.17c-1.18-0.01-2.16-0.4-2.95-1.17c-0.81-0.75-1.21-1.76-1.22-3.03V65.77z"/>
		<path class="st1" d="M232.88,67.39h-3.22v-1.63h8.22v1.63h-3.22v10.5h-1.78V67.39z"/>
		<path class="st1" d="M239.23,65.77H241v12.12h-1.78V65.77z"/>
		<path class="st1" d="M243.05,71.83c0-1.41,0.04-2.36,0.12-2.83c0.08-0.48,0.22-0.86,0.39-1.16c0.28-0.56,0.74-1.05,1.37-1.49
			c0.62-0.44,1.39-0.67,2.31-0.68c0.93,0.01,1.71,0.24,2.33,0.68c0.62,0.44,1.06,0.94,1.34,1.5c0.2,0.29,0.33,0.68,0.41,1.16
			c0.07,0.48,0.1,1.42,0.1,2.83c0,1.39-0.03,2.32-0.1,2.81c-0.08,0.49-0.21,0.88-0.41,1.17c-0.27,0.56-0.72,1.05-1.34,1.48
			c-0.62,0.44-1.4,0.68-2.33,0.7c-0.92-0.02-1.69-0.25-2.31-0.7c-0.63-0.43-1.08-0.92-1.37-1.48c-0.08-0.18-0.16-0.36-0.23-0.52
			c-0.06-0.17-0.12-0.39-0.16-0.65C243.09,74.15,243.05,73.21,243.05,71.83z M244.83,71.83c0,1.19,0.04,2,0.13,2.42
			c0.08,0.42,0.23,0.76,0.46,1.03c0.19,0.25,0.44,0.45,0.74,0.61c0.3,0.18,0.66,0.27,1.08,0.27c0.42,0,0.79-0.09,1.11-0.27
			c0.3-0.16,0.53-0.36,0.71-0.61c0.23-0.26,0.39-0.6,0.48-1.03c0.08-0.42,0.12-1.23,0.12-2.42s-0.04-2.01-0.12-2.44
			c-0.09-0.41-0.25-0.75-0.48-1.01c-0.18-0.25-0.41-0.46-0.71-0.62c-0.31-0.16-0.68-0.25-1.11-0.26c-0.42,0.01-0.78,0.1-1.08,0.26
			c-0.31,0.17-0.55,0.38-0.74,0.62c-0.23,0.26-0.38,0.6-0.46,1.01C244.87,69.82,244.83,70.63,244.83,71.83z"/>
		<path class="st1" d="M253.66,65.77h1.68l5.32,8.62h0.03v-8.62h1.78v12.12h-1.68l-5.31-8.62h-0.03v8.62h-1.78V65.77z"/>
		<path class="st1" d="M265.29,74.95c0.93,0.79,2.05,1.2,3.34,1.21c1.53-0.02,2.3-0.59,2.32-1.69c0.01-0.9-0.5-1.45-1.53-1.63
			c-0.47-0.07-0.99-0.14-1.55-0.22c-1.01-0.17-1.78-0.56-2.3-1.16c-0.54-0.62-0.81-1.37-0.81-2.25c0-1.06,0.34-1.91,1.02-2.56
			c0.66-0.64,1.6-0.97,2.81-0.98c1.46,0.03,2.73,0.45,3.81,1.25l-0.99,1.51c-0.88-0.6-1.85-0.91-2.91-0.93c-0.55,0-1,0.14-1.37,0.42
			c-0.38,0.29-0.58,0.73-0.59,1.31c0,0.35,0.13,0.67,0.39,0.95c0.26,0.29,0.68,0.49,1.26,0.6c0.32,0.06,0.76,0.12,1.32,0.19
			c1.1,0.16,1.92,0.56,2.44,1.22c0.52,0.65,0.78,1.4,0.78,2.26c-0.06,2.32-1.43,3.5-4.12,3.53c-1.74,0-3.23-0.55-4.48-1.65
			L265.29,74.95z"/>
	</g>
</g>
</svg>
