<?xml version="1.0" encoding="utf-8"?>
<!-- Generator: Adobe Illustrator 25.3.0, SVG Export Plug-In . SVG Version: 6.00 Build 0)  -->
<svg version="1.1" id="Layer_1" xmlns="http://www.w3.org/2000/svg" xmlns:xlink="http://www.w3.org/1999/xlink" x="0px" y="0px"
	 viewBox="0 0 319.73 77.67" style="enable-background:new 0 0 319.73 77.67;" xml:space="preserve">
<style type="text/css">
	.st0{fill:#01426A;}
	.st1{fill:#75787B;}
</style>
<g>
	<path class="st0" d="M2,2.05h33.46c9.31,0,16.52,2.61,21.33,7.42c4.08,4.08,6.27,9.83,6.27,16.73v0.21
		c0,11.81-6.38,19.24-15.68,22.69l17.88,26.14H46.44L30.75,51.81H18.1v23.42H2V2.05z M34.41,37.59c7.84,0,12.34-4.18,12.34-10.35
		v-0.21c0-6.9-4.81-10.46-12.65-10.46h-16v21.02H34.41z"/>
	<path class="st0" d="M67.13,2.05h29.9c17.46,0,28.02,10.35,28.02,25.3v0.21c0,16.94-13.17,25.72-29.59,25.72H83.24v21.96h-16.1
		V2.05z M95.99,38.95c8.05,0,12.76-4.81,12.76-11.08v-0.21c0-7.21-5.02-11.08-13.07-11.08H83.24v22.37H95.99z"/>
	<path class="st0" d="M123.59,64.57l9.51-11.4c6.59,5.44,13.49,8.89,21.85,8.89c6.59,0,10.56-2.61,10.56-6.9v-0.21
		c0-4.08-2.51-6.17-14.74-9.31c-14.74-3.76-24.26-7.84-24.26-22.37v-0.21C126.52,9.78,137.18,1,152.13,1
		c10.66,0,19.76,3.35,27.18,9.31l-8.36,12.13c-6.48-4.5-12.86-7.21-19.03-7.21c-6.17,0-9.41,2.82-9.41,6.38v0.21
		c0,4.81,3.14,6.38,15.79,9.62c14.85,3.87,23.21,9.2,23.21,21.96v0.21c0,14.53-11.08,22.69-26.87,22.69
		C143.56,76.28,132.37,72.41,123.59,64.57z"/>
</g>
<g>
	<path class="st1" d="M194.08,41.41c-1.82,0-3.11-0.42-4.28-1.6l1.21-1.21c0.88,0.88,1.89,1.17,3.11,1.17c1.6,0,2.5-0.68,2.5-1.87
		c0-0.54-0.14-0.97-0.48-1.26c-0.31-0.27-0.71-0.42-1.33-0.51l-1.43-0.2c-0.99-0.15-1.75-0.46-2.28-0.97
		c-0.59-0.54-0.9-1.33-0.9-2.33c0-2.11,1.53-3.54,4.04-3.54c1.62,0,2.72,0.41,3.76,1.38l-1.16,1.16c-0.75-0.71-1.63-0.94-2.67-0.94
		c-1.43,0-2.19,0.78-2.19,1.89c0,0.44,0.12,0.85,0.44,1.12c0.31,0.27,0.66,0.44,1.33,0.54l1.44,0.22c1.11,0.17,1.72,0.43,2.24,0.9
		c0.65,0.6,0.99,1.43,0.99,2.48C198.44,40.08,196.63,41.41,194.08,41.41z"/>
	<path class="st1" d="M207.26,40.19c-0.78,0.78-1.8,1.22-3.13,1.22c-1.33,0-2.35-0.44-3.13-1.22c-1.19-1.19-1.22-2.4-1.22-4.93
		s0.03-3.74,1.22-4.93c0.78-0.78,1.8-1.22,3.13-1.22c1.33,0,2.35,0.44,3.13,1.22c1.19,1.19,1.22,2.4,1.22,4.93
		S208.45,39,207.26,40.19z M205.93,31.48c-0.46-0.48-1.07-0.75-1.8-0.75c-0.73,0-1.34,0.27-1.8,0.75c-0.59,0.65-0.71,1.38-0.71,3.77
		c0,2.4,0.12,3.11,0.71,3.76c0.46,0.48,1.07,0.77,1.8,0.77c0.73,0,1.34-0.29,1.8-0.77c0.61-0.63,0.71-1.36,0.71-3.76
		C206.65,32.86,206.55,32.11,205.93,31.48z"/>
	<path class="st1" d="M210.52,41.31v-12.1h1.84v10.45h5.83v1.65H210.52z"/>
	<path class="st1" d="M223.07,41.41c-2.46,0-4.33-1.68-4.33-4.18v-8.02h1.84v7.94c0,1.61,0.99,2.62,2.5,2.62s2.52-1,2.52-2.62v-7.94
		h1.84v8.02C227.42,39.73,225.53,41.41,223.07,41.41z"/>
	<path class="st1" d="M233.81,30.85v10.45h-1.83V30.85h-3.33v-1.65h8.5v1.65H233.81z"/>
	<path class="st1" d="M238.56,41.31v-12.1h1.83v12.1H238.56z"/>
	<path class="st1" d="M249.91,40.19c-0.78,0.78-1.8,1.22-3.13,1.22c-1.33,0-2.35-0.44-3.13-1.22c-1.19-1.19-1.22-2.4-1.22-4.93
		s0.03-3.74,1.22-4.93c0.78-0.78,1.8-1.22,3.13-1.22c1.33,0,2.35,0.44,3.13,1.22c1.19,1.19,1.22,2.4,1.22,4.93
		S251.1,39,249.91,40.19z M248.59,31.48c-0.46-0.48-1.07-0.75-1.8-0.75c-0.73,0-1.34,0.27-1.8,0.75c-0.59,0.65-0.71,1.38-0.71,3.77
		c0,2.4,0.12,3.11,0.71,3.76c0.46,0.48,1.07,0.77,1.8,0.77c0.73,0,1.34-0.29,1.8-0.77c0.61-0.63,0.71-1.36,0.71-3.76
		C249.3,32.86,249.2,32.11,248.59,31.48z"/>
	<path class="st1" d="M260.6,41.31l-5.59-8.52v8.52h-1.84v-12.1h1.68l5.59,8.5v-8.5h1.84v12.1H260.6z"/>
	<path class="st1" d="M267.98,41.41c-1.82,0-3.11-0.42-4.28-1.6l1.21-1.21c0.88,0.88,1.89,1.17,3.11,1.17c1.6,0,2.5-0.68,2.5-1.87
		c0-0.54-0.14-0.97-0.48-1.26c-0.31-0.27-0.71-0.42-1.33-0.51l-1.43-0.2c-0.99-0.15-1.75-0.46-2.28-0.97
		c-0.59-0.54-0.9-1.33-0.9-2.33c0-2.11,1.53-3.54,4.05-3.54c1.61,0,2.72,0.41,3.76,1.38l-1.16,1.16c-0.75-0.71-1.63-0.94-2.67-0.94
		c-1.43,0-2.19,0.78-2.19,1.89c0,0.44,0.12,0.85,0.44,1.12c0.31,0.27,0.66,0.44,1.33,0.54l1.45,0.22c1.1,0.17,1.72,0.43,2.24,0.9
		c0.65,0.6,0.99,1.43,0.99,2.48C272.33,40.08,270.53,41.41,267.98,41.41z"/>
	<path class="st1" d="M282.11,36.53h-2.75v4.78h-1.84v-12.1h4.59c2.36,0,3.88,1.56,3.88,3.67S284.47,36.53,282.11,36.53z
		 M282.01,30.85h-2.65v4.05h2.65c1.29,0,2.14-0.75,2.14-2.02C284.15,31.58,283.3,30.85,282.01,30.85z"/>
	<path class="st1" d="M294.57,40.19c-0.78,0.78-1.8,1.22-3.13,1.22c-1.33,0-2.35-0.44-3.13-1.22c-1.19-1.19-1.22-2.4-1.22-4.93
		s0.03-3.74,1.22-4.93c0.78-0.78,1.8-1.22,3.13-1.22c1.33,0,2.35,0.44,3.13,1.22c1.19,1.19,1.22,2.4,1.22,4.93
		S295.76,39,294.57,40.19z M293.24,31.48c-0.46-0.48-1.07-0.75-1.8-0.75c-0.73,0-1.34,0.27-1.8,0.75c-0.59,0.65-0.71,1.38-0.71,3.77
		c0,2.4,0.12,3.11,0.71,3.76c0.46,0.48,1.07,0.77,1.8,0.77c0.73,0,1.34-0.29,1.8-0.77c0.61-0.63,0.71-1.36,0.71-3.76
		C293.96,32.86,293.86,32.11,293.24,31.48z"/>
	<path class="st1" d="M301.98,41.41c-2.46,0-4.33-1.68-4.33-4.18v-8.02h1.84v7.94c0,1.61,0.99,2.62,2.5,2.62s2.52-1,2.52-2.62v-7.94
		h1.84v8.02C306.33,39.73,304.45,41.41,301.98,41.41z"/>
	<path class="st1" d="M315.31,41.31l-2.55-5.1h-2.29v5.1h-1.84v-12.1h4.69c2.29,0,3.76,1.48,3.76,3.54c0,1.73-1.05,2.84-2.41,3.21
		l2.79,5.35H315.31z M313.19,30.85h-2.72v3.79h2.72c1.22,0,2.06-0.7,2.06-1.89S314.41,30.85,313.19,30.85z"/>
	<path class="st1" d="M195.46,53.53h-2.75v4.78h-1.83v-12.1h4.59c2.36,0,3.88,1.56,3.88,3.67S197.82,53.53,195.46,53.53z
		 M195.36,47.85h-2.65v4.05h2.65c1.29,0,2.14-0.75,2.14-2.02C197.5,48.58,196.65,47.85,195.36,47.85z"/>
	<path class="st1" d="M207.57,58.31l-2.55-5.1h-2.29v5.1h-1.84v-12.1h4.69c2.29,0,3.76,1.48,3.76,3.54c0,1.73-1.05,2.84-2.41,3.21
		l2.79,5.35H207.57z M205.44,47.85h-2.72v3.79h2.72c1.22,0,2.06-0.7,2.06-1.89S206.66,47.85,205.44,47.85z"/>
	<path class="st1" d="M218.21,57.19c-0.78,0.78-1.8,1.22-3.13,1.22s-2.35-0.44-3.13-1.22c-1.19-1.19-1.22-2.4-1.22-4.93
		s0.03-3.74,1.22-4.93c0.78-0.78,1.8-1.22,3.13-1.22s2.35,0.44,3.13,1.22c1.19,1.19,1.22,2.4,1.22,4.93S219.4,56,218.21,57.19z
		 M216.88,48.48c-0.46-0.48-1.07-0.75-1.8-0.75s-1.34,0.27-1.8,0.75c-0.59,0.65-0.71,1.38-0.71,3.77c0,2.4,0.12,3.11,0.71,3.76
		c0.46,0.48,1.07,0.77,1.8,0.77s1.34-0.29,1.8-0.77c0.61-0.63,0.71-1.36,0.71-3.76C217.6,49.86,217.49,49.11,216.88,48.48z"/>
	<path class="st1" d="M226.06,53.53h-2.75v4.78h-1.84v-12.1h4.59c2.36,0,3.88,1.56,3.88,3.67S228.42,53.53,226.06,53.53z
		 M225.96,47.85h-2.65v4.05h2.65c1.29,0,2.14-0.75,2.14-2.02C228.1,48.58,227.25,47.85,225.96,47.85z"/>
	<path class="st1" d="M238.17,58.31l-2.55-5.1h-2.29v5.1h-1.84v-12.1h4.69c2.29,0,3.76,1.48,3.76,3.54c0,1.73-1.05,2.84-2.41,3.21
		l2.79,5.35H238.17z M236.04,47.85h-2.72v3.79h2.72c1.22,0,2.06-0.7,2.06-1.89S237.26,47.85,236.04,47.85z"/>
	<path class="st1" d="M241.94,58.31v-12.1h1.84v12.1H241.94z"/>
	<path class="st1" d="M246.26,58.31v-12.1h7.73v1.65h-5.9v3.54h5.03v1.63h-5.03v3.64h5.9v1.65H246.26z M250.39,45.03h-1.31
		l1.27-2.75h1.92L250.39,45.03z"/>
	<path class="st1" d="M259.93,47.85v10.45h-1.84V47.85h-3.33v-1.65h8.5v1.65H259.93z"/>
	<path class="st1" d="M264.67,58.31v-12.1h7.73v1.65h-5.9v3.54h5.03v1.63h-5.03v3.64h5.9v1.65H264.67z M268.8,45.03h-1.31l1.27-2.75
		h1.92L268.8,45.03z"/>
	<path class="st1" d="M277.45,58.41c-1.82,0-3.11-0.42-4.28-1.6l1.21-1.21c0.88,0.88,1.89,1.17,3.11,1.17c1.6,0,2.5-0.68,2.5-1.87
		c0-0.54-0.14-0.97-0.48-1.26c-0.31-0.27-0.71-0.42-1.33-0.51l-1.43-0.2c-0.99-0.15-1.75-0.46-2.28-0.97
		c-0.59-0.54-0.9-1.33-0.9-2.33c0-2.11,1.53-3.54,4.05-3.54c1.62,0,2.72,0.41,3.76,1.38l-1.16,1.16c-0.75-0.71-1.63-0.94-2.67-0.94
		c-1.43,0-2.19,0.78-2.19,1.89c0,0.44,0.12,0.85,0.44,1.12c0.31,0.27,0.66,0.44,1.33,0.54l1.45,0.22c1.1,0.17,1.72,0.43,2.24,0.9
		c0.65,0.6,0.99,1.43,0.99,2.48C281.8,57.08,280,58.41,277.45,58.41z"/>
	<path class="st1" d="M197.55,75.31l-2.55-5.1h-2.29v5.1h-1.83v-12.1h4.69c2.29,0,3.76,1.48,3.76,3.54c0,1.73-1.05,2.84-2.41,3.21
		l2.79,5.35H197.55z M195.43,64.85h-2.72v3.79h2.72c1.22,0,2.06-0.7,2.06-1.89S196.65,64.85,195.43,64.85z"/>
	<path class="st1" d="M201.33,75.31v-12.1h7.73v1.65h-5.9v3.54h5.03v1.63h-5.03v3.64h5.9v1.65H201.33z M205.46,62.03h-1.31
		l1.27-2.75h1.92L205.46,62.03z"/>
	<path class="st1" d="M214.11,75.41c-1.82,0-3.11-0.42-4.28-1.6l1.21-1.21c0.88,0.88,1.89,1.17,3.11,1.17c1.6,0,2.5-0.68,2.5-1.87
		c0-0.54-0.14-0.97-0.48-1.26c-0.31-0.27-0.71-0.42-1.33-0.51l-1.43-0.2c-0.99-0.15-1.75-0.46-2.28-0.97
		c-0.59-0.54-0.9-1.33-0.9-2.33c0-2.11,1.53-3.54,4.05-3.54c1.61,0,2.72,0.41,3.76,1.38l-1.16,1.16c-0.75-0.71-1.63-0.94-2.67-0.94
		c-1.43,0-2.19,0.78-2.19,1.89c0,0.44,0.12,0.85,0.44,1.12c0.31,0.27,0.66,0.44,1.33,0.54l1.45,0.22c1.1,0.17,1.72,0.43,2.24,0.9
		c0.65,0.6,0.99,1.43,0.99,2.48C218.46,74.08,216.66,75.41,214.11,75.41z"/>
	<path class="st1" d="M220.25,75.31v-12.1h1.83v12.1H220.25z"/>
	<path class="st1" d="M232.25,73.78c-0.85,1.05-1.92,1.53-3.43,1.53h-4.25v-12.1h4.25c1.51,0,2.58,0.48,3.43,1.53
		c0.88,1.09,0.92,2.58,0.92,4.52S233.13,72.69,232.25,73.78z M230.69,65.67c-0.51-0.59-1.21-0.83-2.07-0.83h-2.21v8.84h2.21
		c0.87,0,1.56-0.24,2.07-0.83c0.6-0.66,0.65-1.79,0.65-3.59C231.33,67.46,231.28,66.33,230.69,65.67z"/>
	<path class="st1" d="M235.21,75.31v-12.1h7.73v1.65h-5.9v3.54h5.03v1.63h-5.03v3.64h5.9v1.65H235.21z"/>
	<path class="st1" d="M252.21,75.31l-5.59-8.52v8.52h-1.83v-12.1h1.68l5.59,8.5v-8.5h1.84v12.1H252.21z"/>
	<path class="st1" d="M260.47,64.85v10.45h-1.83V64.85h-3.33v-1.65h8.5v1.65H260.47z"/>
	<path class="st1" d="M265.21,75.31v-12.1h1.84v12.1H265.21z"/>
	<path class="st1" d="M269.53,75.31v-12.1h7.73v1.65h-5.9v3.54h5.03v1.63h-5.03v3.64h5.9v1.65H269.53z"/>
	<path class="st1" d="M279.1,75.31v-12.1h1.84v10.45h5.83v1.65H279.1z"/>
	<path class="st1" d="M288.18,75.31v-12.1h1.84v10.45h5.83v1.65H288.18z"/>
	<path class="st1" d="M297.26,75.31v-12.1h7.73v1.65h-5.9v3.54h5.03v1.63h-5.03v3.64h5.9v1.65H297.26z"/>
	<path class="st1" d="M310.04,75.41c-1.82,0-3.11-0.42-4.28-1.6l1.21-1.21c0.88,0.88,1.89,1.17,3.11,1.17c1.6,0,2.5-0.68,2.5-1.87
		c0-0.54-0.14-0.97-0.48-1.26c-0.31-0.27-0.71-0.42-1.33-0.51l-1.43-0.2c-0.99-0.15-1.75-0.46-2.28-0.97
		c-0.59-0.54-0.9-1.33-0.9-2.33c0-2.11,1.53-3.54,4.05-3.54c1.61,0,2.72,0.41,3.76,1.38l-1.16,1.16c-0.75-0.71-1.63-0.94-2.67-0.94
		c-1.43,0-2.19,0.78-2.19,1.89c0,0.44,0.12,0.85,0.44,1.12c0.31,0.27,0.66,0.44,1.33,0.54l1.44,0.22c1.11,0.17,1.72,0.43,2.24,0.9
		c0.65,0.6,0.99,1.43,0.99,2.48C314.39,74.08,312.59,75.41,310.04,75.41z"/>
</g>
</svg>
