<svg xmlns="http://www.w3.org/2000/svg" width="48.7" height="31.8" viewBox="0 0 48.7 31.8"><defs><style>.a,.b{fill:#04446c;}.a{fill-rule:evenodd;}.b{stroke:#04446c;stroke-miterlimit:10;}</style></defs><g transform="translate(0.1)"><g transform="translate(-0.7 -9.2)"><path class="a" d="M18,31.4h3.3v4.3H18Zm-11.4,0H9.9v4.3H6.6Zm3.3-6.5v4.3H6.6V24.9H9.9Zm5.7,0v4.3H12.3V24.9h3.3ZM24.3,41V23.8H3.1V41h8.4V32.3h4.9V41ZM18,29.2V24.9h3.3v4.3Zm10.7,2.2H32v4.3H28.7Zm11.4,0h3.3v4.3H40.1Zm0-2.2V24.9h3.3v4.3Zm-5.7,0V24.9h3.3v4.3Zm-5.7,0V24.9H32v4.3Zm-3-5.4V41h8V32.3h4.9V41H47V23.8Zm23.6-2.5L35.4,9.2,25,20,14.6,9.2.7,21.3Z"/></g><rect class="b" width="47.6" height="0.8" transform="translate(0.4 12.6)"/></g></svg>